<svg version="1.1" id="Layer_1" xmlns="http://www.w3.org/2000/svg" xmlns:xlink="http://www.w3.org/1999/xlink" x="0px" y="0px"
	 width="100%" viewBox="0 0 1920 1080" enable-background="new 0 0 1920 1080" xml:space="preserve">
<path fill="#000000" opacity="1.000000" stroke="none" 
	d="
M1814.000000,1081.000000 
	C1209.333496,1081.000000 605.166870,1081.000000 1.000243,1081.000000 
	C1.000162,721.000183 1.000162,361.000336 1.000081,1.000388 
	C640.999695,1.000259 1280.999390,1.000259 1920.999268,1.000129 
	C1920.999512,360.999634 1920.999512,720.999268 1920.999756,1080.999512 
	C1885.500000,1081.000000 1850.000000,1081.000000 1814.000000,1081.000000 
M876.000000,468.500000 
	C876.000000,528.924561 876.000000,589.349182 876.000000,649.718628 
	C932.967407,649.718628 989.368835,649.718628 1045.719727,649.718628 
	C1045.719727,596.369202 1045.719727,543.301086 1045.719727,489.833801 
	C1026.035156,489.833801 1006.627869,489.833801 986.828979,489.833801 
	C986.828979,470.363617 986.828979,451.289490 986.828979,432.285767 
	C949.692749,432.285767 912.956482,432.285767 876.000000,432.285767 
	C876.000000,444.213593 876.000000,455.856781 876.000000,468.500000 
M995.680542,483.999756 
	C1012.052673,483.999756 1028.424805,483.999756 1043.285522,483.999756 
	C1026.672485,467.429443 1009.582458,450.383362 993.001709,433.845215 
	C993.001709,448.916626 992.978699,465.313721 993.074341,481.710114 
	C993.078857,482.475250 994.143066,483.234222 995.680542,483.999756 
z"/>
<path fill="#FFFFFF" opacity="1.000000" stroke="none" 
	d="
M876.000000,468.000000 
	C876.000000,455.856781 876.000000,444.213593 876.000000,432.285767 
	C912.956482,432.285767 949.692749,432.285767 986.828979,432.285767 
	C986.828979,451.289490 986.828979,470.363617 986.828979,489.833801 
	C1006.627869,489.833801 1026.035156,489.833801 1045.719727,489.833801 
	C1045.719727,543.301086 1045.719727,596.369202 1045.719727,649.718628 
	C989.368835,649.718628 932.967407,649.718628 876.000000,649.718628 
	C876.000000,589.349182 876.000000,528.924561 876.000000,468.000000 
M981.000000,589.651794 
	C980.604980,587.041504 981.295410,585.865784 984.360168,585.922546 
	C995.131775,586.122131 1005.909363,586.000061 1016.763428,586.000061 
	C1016.763428,572.790771 1016.763428,560.054688 1016.763428,546.922546 
	C1004.791931,546.922546 993.050232,546.922546 980.920654,546.922546 
	C980.920654,534.456238 980.920654,522.382507 980.920654,510.239136 
	C967.452209,510.239136 954.382751,510.239136 940.917480,510.239136 
	C940.917480,522.213440 940.917480,533.954041 940.917480,546.084473 
	C928.784729,546.084473 917.043030,546.084473 905.241699,546.084473 
	C905.241699,559.553040 905.241699,572.622559 905.241699,586.087708 
	C917.218628,586.087708 928.960266,586.087708 941.089600,586.087708 
	C941.089600,598.554077 941.089600,610.628906 941.089600,623.000000 
	C947.948242,623.000000 954.413635,623.000000 960.878967,623.000000 
	C967.488159,623.000000 974.097412,623.000000 980.385498,623.000000 
	C980.779175,622.378540 980.936707,622.245789 980.937073,622.112732 
	C980.965942,611.616028 980.982483,601.119385 981.000000,589.651794 
z"/>
<path fill="#FFFFFF" opacity="1.000000" stroke="none" 
	d="
M995.197144,483.997894 
	C994.143066,483.234222 993.078857,482.475250 993.074341,481.710114 
	C992.978699,465.313721 993.001709,448.916626 993.001709,433.845215 
	C1009.582458,450.383362 1026.672485,467.429443 1043.285522,483.999756 
	C1028.424805,483.999756 1012.052673,483.999756 995.197144,483.997894 
z"/>
<path fill="#000000" opacity="1.000000" stroke="none" 
	d="
M981.000000,590.137207 
	C980.982483,601.119385 980.965942,611.616028 980.937073,622.112732 
	C980.936707,622.245789 980.779175,622.378540 980.385498,623.000000 
	C974.097412,623.000000 967.488159,623.000000 960.878967,623.000000 
	C954.413635,623.000000 947.948242,623.000000 941.089600,623.000000 
	C941.089600,610.628906 941.089600,598.554077 941.089600,586.087708 
	C928.960266,586.087708 917.218628,586.087708 905.241699,586.087708 
	C905.241699,572.622559 905.241699,559.553040 905.241699,546.084473 
	C917.043030,546.084473 928.784729,546.084473 940.917480,546.084473 
	C940.917480,533.954041 940.917480,522.213440 940.917480,510.239136 
	C954.382751,510.239136 967.452209,510.239136 980.920654,510.239136 
	C980.920654,522.382507 980.920654,534.456238 980.920654,546.922546 
	C993.050232,546.922546 1004.791931,546.922546 1016.763428,546.922546 
	C1016.763428,560.054688 1016.763428,572.790771 1016.763428,586.000061 
	C1005.909363,586.000061 995.131775,586.122131 984.360168,585.922546 
	C981.295410,585.865784 980.604980,587.041504 981.000000,590.137207 
z"/>
</svg>