<svg version="1.1" id="Layer_1" xmlns="http://www.w3.org/2000/svg" xmlns:xlink="http://www.w3.org/1999/xlink" x="0px" y="0px"
	 width="100%" viewBox="0 0 1920 1080" enable-background="new 0 0 1920 1080" xml:space="preserve">
<path fill="#000000" opacity="1.000000" stroke="none" 
	d="
M1792.000000,1081.000000 
	C1194.666748,1081.000000 597.833557,1081.000000 1.000240,1081.000000 
	C1.000160,721.000183 1.000160,361.000336 1.000080,1.000385 
	C640.999695,1.000257 1280.999390,1.000257 1920.999268,1.000128 
	C1920.999512,360.999634 1920.999512,720.999268 1920.999756,1080.999512 
	C1878.166626,1081.000000 1835.333374,1081.000000 1792.000000,1081.000000 
M584.503296,439.000000 
	C579.403992,439.000000 574.304626,439.000000 569.284363,439.000000 
	C569.284363,512.308105 569.284363,585.041626 569.284363,657.716919 
	C625.637390,657.716919 681.705566,657.716919 737.717896,657.716919 
	C737.717896,604.364929 737.717896,551.296509 737.717896,497.830017 
	C718.031433,497.830017 698.624023,497.830017 678.825134,497.830017 
	C678.825134,478.026428 678.825134,458.619080 678.825134,439.000000 
	C647.451538,439.000000 616.476685,439.000000 584.503296,439.000000 
M921.000000,474.500000 
	C921.000000,510.242188 921.000000,545.984375 921.000000,582.000000 
	C942.803101,582.000000 964.095703,582.294067 985.373657,581.863525 
	C994.621765,581.676453 1004.023254,580.828430 1013.034790,578.833801 
	C1034.278564,574.131653 1051.024780,562.639832 1060.613281,542.637024 
	C1067.402344,528.474426 1068.481201,513.326111 1066.086792,497.796661 
	C1064.003418,484.284424 1058.656860,472.410004 1049.115234,462.716064 
	C1033.037842,446.382172 1012.496826,440.703522 990.427917,440.123810 
	C968.793335,439.555481 947.132202,439.995544 925.482727,440.009979 
	C924.049133,440.010956 922.615723,440.155426 921.000000,440.243011 
	C921.000000,451.557617 921.000000,462.528809 921.000000,474.500000 
M1099.498047,561.998535 
	C1105.707275,566.669617 1111.459961,572.186340 1118.220825,575.835266 
	C1132.179077,583.368713 1147.408081,584.931458 1163.233765,584.164124 
	C1183.493408,583.181824 1200.692627,576.203064 1214.841064,561.670837 
	C1219.069946,557.327148 1219.031250,557.483276 1214.044434,553.472534 
	C1211.593872,551.501709 1209.626709,548.942017 1207.282593,546.824036 
	C1202.332520,542.351746 1197.278442,537.994751 1192.972656,534.210571 
	C1186.441528,538.680786 1180.917603,543.353394 1174.646606,546.569580 
	C1161.316895,553.405945 1143.224487,550.521667 1133.039917,540.453491 
	C1118.651489,526.229675 1117.146240,504.859467 1127.707520,487.803101 
	C1135.422485,475.343262 1152.471924,469.639099 1166.544434,472.811798 
	C1175.649536,474.864563 1182.958862,479.343842 1189.334839,485.822235 
	C1190.826782,487.337982 1192.086060,489.280457 1194.608276,486.936676 
	C1201.839844,480.216705 1209.272827,473.711823 1216.420898,466.906281 
	C1217.252075,466.114899 1217.495972,463.165680 1216.821777,462.574677 
	C1210.704102,457.211578 1204.874268,451.188538 1197.909668,447.187286 
	C1179.391724,436.548798 1158.983398,435.399475 1138.557983,439.185577 
	C1115.322388,443.492523 1097.545898,456.253845 1086.811646,477.704926 
	C1080.293701,490.730316 1078.252563,504.482086 1079.814697,519.160706 
	C1081.565063,535.608582 1087.226318,549.817688 1099.498047,561.998535 
M766.999939,515.758240 
	C767.062500,528.176331 770.480896,539.640137 777.029785,550.141663 
	C785.764709,564.148621 798.076172,574.147156 813.473816,579.591553 
	C825.215027,583.743103 837.538269,584.902588 850.241150,584.206116 
	C870.487549,583.096191 887.851013,576.541748 901.871765,561.660034 
	C906.017639,557.259644 905.999756,556.823425 901.371582,552.828857 
	C895.154541,547.462891 888.896484,542.116089 883.051880,536.359131 
	C880.162842,533.513428 878.472839,533.620789 875.879089,536.520081 
	C867.085083,546.350159 855.970703,550.891724 842.803467,549.965210 
	C832.718384,549.255676 823.596375,545.661682 817.360596,537.587769 
	C807.604309,524.955627 805.515259,510.779907 810.977295,495.573761 
	C817.578430,477.196289 835.879089,469.375793 853.187805,472.671082 
	C862.381714,474.421478 870.024841,478.991699 876.472473,485.789154 
	C877.465088,486.835663 880.428101,487.677216 881.151367,487.059113 
	C888.782837,480.537476 896.213318,473.772430 903.484009,466.848572 
	C904.295715,466.075714 904.478882,463.297791 903.767822,462.477722 
	C896.084290,453.615967 886.914062,447.003723 875.731079,442.830017 
	C862.476318,437.883057 848.970032,437.203735 835.124695,437.954895 
	C824.300537,438.542145 813.903625,441.299225 804.602966,446.344788 
	C786.002991,456.435120 772.945068,471.537537 768.749329,492.845032 
	C767.337585,500.014221 767.535767,507.500427 766.999939,515.758240 
M708.000000,461.500000 
	C700.693420,454.195740 693.386841,446.891449 685.272461,438.779602 
	C685.272461,457.418640 685.272461,474.585480 685.272461,491.819580 
	C702.618042,491.819580 719.690613,491.819580 738.114258,491.819580 
	C729.351868,479.842560 717.729187,472.062439 708.000000,461.500000 
M1209.005005,650.490906 
	C1214.877686,644.680420 1216.044067,637.634399 1215.080200,629.696960 
	C1214.000732,620.808899 1208.971313,612.881287 1200.361328,611.230225 
	C1190.197144,609.281067 1179.699951,609.069275 1169.267090,608.096863 
	C1169.267090,625.616455 1169.267090,641.680115 1169.267090,658.000000 
	C1176.998535,658.000000 1184.479004,658.273193 1191.929199,657.915588 
	C1198.150635,657.616882 1203.993774,655.768127 1209.005005,650.490906 
M1083.823730,610.296204 
	C1075.118774,609.866455 1066.415771,609.352417 1057.705566,609.136475 
	C1056.827515,609.114746 1055.129028,610.886292 1055.118774,611.839722 
	C1054.954468,627.110596 1055.002930,642.383728 1055.002930,657.799622 
	C1057.489868,657.799622 1059.557617,657.799622 1062.016968,657.799622 
	C1062.016968,652.866211 1062.016968,648.114441 1062.016968,643.471619 
	C1072.250977,641.125732 1080.235474,643.193420 1084.613037,653.184570 
	C1086.733398,658.023743 1090.338989,658.688110 1095.624390,657.512207 
	C1091.605347,651.828796 1087.909302,646.602234 1084.207153,641.379761 
	C1092.193359,638.077759 1094.756348,631.851990 1094.036011,623.646423 
	C1093.476929,617.277649 1090.211304,613.164490 1083.823730,610.296204 
M990.424377,649.950500 
	C996.102905,657.172852 1003.924194,658.159058 1012.439819,658.106445 
	C1020.565613,658.056152 1030.955688,653.386658 1034.554688,642.870300 
	C1037.811157,633.354858 1036.769897,624.111328 1029.818359,616.447937 
	C1022.596985,608.487000 1013.078369,607.905823 1003.143372,609.340942 
	C997.173401,610.203369 992.024841,613.536865 989.273499,618.088135 
	C983.125366,628.258606 982.597900,639.114319 990.424377,649.950500 
M811.517517,650.011719 
	C809.436157,647.120728 807.354797,644.229736 805.284119,641.353638 
	C813.645996,637.302734 815.998047,633.042358 814.940308,622.332458 
	C814.242554,615.268066 809.400452,611.075745 802.953674,610.149841 
	C794.445312,608.927856 785.742371,609.059814 777.302246,608.619080 
	C777.302246,625.765686 777.302246,641.834900 777.302246,658.067200 
	C779.361816,657.958130 781.104065,657.865845 783.212585,657.754211 
	C783.212585,652.640076 783.212585,647.900452 783.212585,643.199890 
	C797.562012,642.461243 797.569946,642.454895 803.970154,650.501770 
	C804.667114,651.377930 805.319580,652.326172 805.796936,653.333801 
	C807.882141,657.735352 811.244629,659.042725 816.340210,657.467407 
	C814.856934,655.086121 813.444702,652.818970 811.517517,650.011719 
M844.678833,629.999756 
	C843.786377,629.222473 842.176941,628.491943 842.122864,627.660095 
	C841.856018,623.561462 842.001526,619.436035 842.001526,614.944580 
	C851.535950,614.944580 860.623230,614.944580 869.782593,614.944580 
	C869.782593,612.812744 869.782593,611.074768 869.782593,609.228271 
	C858.154907,609.228271 846.745178,609.228271 835.230408,609.228271 
	C835.230408,625.527771 835.230408,641.598145 835.230408,657.798767 
	C847.221680,657.798767 858.981995,657.798767 870.690369,657.798767 
	C871.918579,653.125122 870.110107,651.748169 865.656494,651.917725 
	C857.888306,652.213318 850.100830,652.000000 842.234741,652.000000 
	C842.234741,646.463074 842.234741,641.391357 842.234741,635.932861 
	C850.549011,635.932861 858.637695,635.932861 866.775635,635.932861 
	C866.775635,633.801147 866.775635,632.063049 866.775635,630.000000 
	C859.588684,630.000000 852.620422,630.000000 844.678833,629.999756 
M1141.416870,615.000000 
	C1143.533936,615.000000 1145.651001,615.000000 1147.752441,615.000000 
	C1147.752441,612.762512 1147.752441,611.024048 1147.752441,609.255249 
	C1136.429077,609.255249 1125.354370,609.255249 1114.256836,609.255249 
	C1114.256836,625.582092 1114.256836,641.652405 1114.256836,658.000000 
	C1120.145874,658.000000 1125.782471,658.000000 1131.418945,658.000000 
	C1137.202148,658.000000 1142.985474,658.000000 1148.752441,658.000000 
	C1148.752441,655.762329 1148.752441,654.023804 1148.752441,651.890503 
	C1139.430786,651.890503 1130.350952,651.890503 1121.258911,651.890503 
	C1121.258911,646.412842 1121.258911,641.340576 1121.258911,635.887695 
	C1129.266846,635.887695 1137.022461,635.887695 1144.749268,635.887695 
	C1144.749268,633.757263 1144.749268,632.018677 1144.749268,629.885132 
	C1136.758179,629.885132 1129.008667,629.885132 1121.261719,629.885132 
	C1121.261719,624.740051 1121.261719,620.001038 1121.261719,615.000000 
	C1127.823853,615.000000 1134.128174,615.000000 1141.416870,615.000000 
M888.372314,647.005676 
	C884.767761,650.903015 885.073364,652.095886 889.021118,654.600159 
	C895.760376,658.875061 903.184387,658.326721 910.469360,657.875793 
	C916.904541,657.477417 922.064331,651.915527 922.989136,645.631226 
	C923.681091,640.929382 920.622253,635.833130 914.698242,633.407898 
	C909.842102,631.419861 904.526123,630.578491 899.591248,628.750427 
	C896.564514,627.629211 893.018494,625.723938 894.189148,621.738098 
	C894.903870,619.304443 897.073181,616.336609 899.297119,615.507385 
	C903.939941,613.776306 909.184631,613.877136 913.638245,616.388672 
	C917.638550,618.644592 919.915833,618.368958 921.069397,613.171936 
	C919.833191,612.492859 918.531433,611.301880 917.073547,611.062500 
	C911.827881,610.201294 906.541870,609.259155 901.247986,609.096375 
	C893.722290,608.864990 887.886963,613.502869 887.005798,619.646973 
	C885.955994,626.966614 889.372375,632.413269 896.939514,634.937866 
	C901.630676,636.502930 906.514282,637.494446 911.195129,639.085693 
	C914.079773,640.066223 916.929016,642.440063 915.749634,645.490723 
	C914.748047,648.081604 911.976685,651.021240 909.396118,651.772583 
	C902.039978,653.914368 895.241272,651.507690 888.372314,647.005676 
M957.000000,654.326904 
	C957.000000,641.270935 957.000000,628.214905 957.000000,614.800415 
	C963.035217,614.800415 968.449097,614.800415 974.049377,614.800415 
	C973.955444,612.678772 973.878479,610.939697 973.803406,609.243958 
	C960.364441,609.243958 947.304993,609.243958 934.237549,609.243958 
	C934.237549,611.234009 934.237549,612.970947 934.237549,615.079163 
	C939.538147,615.079163 944.616150,615.079163 950.030518,615.079163 
	C950.030518,629.513550 950.030518,643.566895 950.030518,658.410706 
	C952.533325,656.670898 956.456116,660.782532 957.000000,654.326904 
z"/>
<path fill="#FFFFFF" opacity="1.000000" stroke="none" 
	d="
M585.002563,439.000000 
	C616.476685,439.000000 647.451538,439.000000 678.825134,439.000000 
	C678.825134,458.619080 678.825134,478.026428 678.825134,497.830017 
	C698.624023,497.830017 718.031433,497.830017 737.717896,497.830017 
	C737.717896,551.296509 737.717896,604.364929 737.717896,657.716919 
	C681.705566,657.716919 625.637390,657.716919 569.284363,657.716919 
	C569.284363,585.041626 569.284363,512.308105 569.284363,439.000000 
	C574.304626,439.000000 579.403992,439.000000 585.002563,439.000000 
M634.000000,523.599731 
	C634.000000,533.687256 634.000000,543.774780 634.000000,554.246277 
	C621.285889,554.246277 609.211060,554.246277 597.322266,554.246277 
	C597.322266,567.716797 597.322266,580.788025 597.322266,594.248535 
	C609.716431,594.248535 621.791260,594.248535 634.250122,594.248535 
	C634.250122,606.384705 634.250122,618.126526 634.250122,629.675598 
	C647.387695,629.675598 660.125732,629.675598 673.252869,629.675598 
	C673.252869,617.612488 673.252869,605.870605 673.252869,593.745605 
	C685.722412,593.745605 697.797241,593.745605 709.673523,593.745605 
	C709.673523,580.608093 709.673523,567.869934 709.673523,554.743042 
	C697.275024,554.743042 685.200195,554.743042 672.741577,554.743042 
	C672.741577,542.273560 672.741577,530.198669 672.741577,518.151611 
	C659.725708,518.151611 647.107849,518.151611 634.000000,518.151611 
	C634.000000,519.738098 634.000000,521.180359 634.000000,523.599731 
z"/>
<path fill="#FFFFFF" opacity="1.000000" stroke="none" 
	d="
M921.000000,474.000000 
	C921.000000,462.528809 921.000000,451.557617 921.000000,440.243011 
	C922.615723,440.155426 924.049133,440.010956 925.482727,440.009979 
	C947.132202,439.995544 968.793335,439.555481 990.427917,440.123810 
	C1012.496826,440.703522 1033.037842,446.382172 1049.115234,462.716064 
	C1058.656860,472.410004 1064.003418,484.284424 1066.086792,497.796661 
	C1068.481201,513.326111 1067.402344,528.474426 1060.613281,542.637024 
	C1051.024780,562.639832 1034.278564,574.131653 1013.034790,578.833801 
	C1004.023254,580.828430 994.621765,581.676453 985.373657,581.863525 
	C964.095703,582.294067 942.803101,582.000000 921.000000,582.000000 
	C921.000000,545.984375 921.000000,510.242188 921.000000,474.000000 
M962.000000,491.500610 
	C962.000000,510.569855 962.000000,529.639099 962.000000,547.998474 
	C973.363586,547.998474 984.303040,548.814697 995.057800,547.755310 
	C1004.675110,546.807922 1013.203369,542.339539 1018.789062,533.714966 
	C1024.317871,525.178406 1026.310791,515.982056 1025.084106,505.808136 
	C1023.610535,493.587616 1018.461792,483.672760 1007.279846,478.306091 
	C1001.811584,475.681702 995.306396,474.785553 989.160278,474.108826 
	C980.235474,473.126160 971.210999,473.049713 962.000000,472.574982 
	C962.000000,479.228790 962.000000,484.865021 962.000000,491.500610 
z"/>
<path fill="#FFFFFF" opacity="1.000000" stroke="none" 
	d="
M1099.248047,561.747559 
	C1087.226318,549.817688 1081.565063,535.608582 1079.814697,519.160706 
	C1078.252563,504.482086 1080.293701,490.730316 1086.811646,477.704926 
	C1097.545898,456.253845 1115.322388,443.492523 1138.557983,439.185577 
	C1158.983398,435.399475 1179.391724,436.548798 1197.909668,447.187286 
	C1204.874268,451.188538 1210.704102,457.211578 1216.821777,462.574677 
	C1217.495972,463.165680 1217.252075,466.114899 1216.420898,466.906281 
	C1209.272827,473.711823 1201.839844,480.216705 1194.608276,486.936676 
	C1192.086060,489.280457 1190.826782,487.337982 1189.334839,485.822235 
	C1182.958862,479.343842 1175.649536,474.864563 1166.544434,472.811798 
	C1152.471924,469.639099 1135.422485,475.343262 1127.707520,487.803101 
	C1117.146240,504.859467 1118.651489,526.229675 1133.039917,540.453491 
	C1143.224487,550.521667 1161.316895,553.405945 1174.646606,546.569580 
	C1180.917603,543.353394 1186.441528,538.680786 1192.972656,534.210571 
	C1197.278442,537.994751 1202.332520,542.351746 1207.282593,546.824036 
	C1209.626709,548.942017 1211.593872,551.501709 1214.044434,553.472534 
	C1219.031250,557.483276 1219.069946,557.327148 1214.841064,561.670837 
	C1200.692627,576.203064 1183.493408,583.181824 1163.233765,584.164124 
	C1147.408081,584.931458 1132.179077,583.368713 1118.220825,575.835266 
	C1111.459961,572.186340 1105.707275,566.669617 1099.248047,561.747559 
z"/>
<path fill="#FFFFFF" opacity="1.000000" stroke="none" 
	d="
M766.999023,515.299988 
	C767.535767,507.500427 767.337585,500.014221 768.749329,492.845032 
	C772.945068,471.537537 786.002991,456.435120 804.602966,446.344788 
	C813.903625,441.299225 824.300537,438.542145 835.124695,437.954895 
	C848.970032,437.203735 862.476318,437.883057 875.731079,442.830017 
	C886.914062,447.003723 896.084290,453.615967 903.767822,462.477722 
	C904.478882,463.297791 904.295715,466.075714 903.484009,466.848572 
	C896.213318,473.772430 888.782837,480.537476 881.151367,487.059113 
	C880.428101,487.677216 877.465088,486.835663 876.472473,485.789154 
	C870.024841,478.991699 862.381714,474.421478 853.187805,472.671082 
	C835.879089,469.375793 817.578430,477.196289 810.977295,495.573761 
	C805.515259,510.779907 807.604309,524.955627 817.360596,537.587769 
	C823.596375,545.661682 832.718384,549.255676 842.803467,549.965210 
	C855.970703,550.891724 867.085083,546.350159 875.879089,536.520081 
	C878.472839,533.620789 880.162842,533.513428 883.051880,536.359131 
	C888.896484,542.116089 895.154541,547.462891 901.371582,552.828857 
	C905.999756,556.823425 906.017639,557.259644 901.871765,561.660034 
	C887.851013,576.541748 870.487549,583.096191 850.241150,584.206116 
	C837.538269,584.902588 825.215027,583.743103 813.473816,579.591553 
	C798.076172,574.147156 785.764709,564.148621 777.029785,550.141663 
	C770.480896,539.640137 767.062500,528.176331 766.999023,515.299988 
z"/>
<path fill="#FFFFFF" opacity="1.000000" stroke="none" 
	d="
M708.250000,461.750000 
	C717.729187,472.062439 729.351868,479.842560 738.114258,491.819580 
	C719.690613,491.819580 702.618042,491.819580 685.272461,491.819580 
	C685.272461,474.585480 685.272461,457.418640 685.272461,438.779602 
	C693.386841,446.891449 700.693420,454.195740 708.250000,461.750000 
z"/>
<path fill="#FFFFFF" opacity="1.000000" stroke="none" 
	d="
M1208.745117,650.749939 
	C1203.993774,655.768127 1198.150635,657.616882 1191.929199,657.915588 
	C1184.479004,658.273193 1176.998535,658.000000 1169.267090,658.000000 
	C1169.267090,641.680115 1169.267090,625.616455 1169.267090,608.096863 
	C1179.699951,609.069275 1190.197144,609.281067 1200.361328,611.230225 
	C1208.971313,612.881287 1214.000732,620.808899 1215.080200,629.696960 
	C1216.044067,637.634399 1214.877686,644.680420 1208.745117,650.749939 
M1203.416138,620.041992 
	C1195.292358,613.212219 1185.669678,615.212402 1176.217285,615.068970 
	C1176.217285,627.512390 1176.217285,639.577515 1176.217285,651.999207 
	C1181.550171,651.999207 1186.724121,652.457458 1191.786743,651.901855 
	C1201.688721,650.815125 1209.416504,643.201965 1208.765137,633.334290 
	C1208.478882,628.996887 1205.638428,624.828003 1203.416138,620.041992 
z"/>
<path fill="#FFFFFF" opacity="1.000000" stroke="none" 
	d="
M1084.103027,610.591736 
	C1090.211304,613.164490 1093.476929,617.277649 1094.036011,623.646423 
	C1094.756348,631.851990 1092.193359,638.077759 1084.210205,641.377747 
	C1087.909302,646.602234 1091.605347,651.828796 1095.624390,657.512207 
	C1090.338989,658.688110 1086.733398,658.023743 1084.613037,653.184570 
	C1080.235474,643.193420 1072.250977,641.125732 1062.016968,643.471619 
	C1062.016968,648.114441 1062.016968,652.866211 1062.016968,657.799622 
	C1059.557617,657.799622 1057.489868,657.799622 1055.002930,657.799622 
	C1055.002930,642.383728 1054.954468,627.110596 1055.118774,611.839722 
	C1055.129028,610.886292 1056.827515,609.114746 1057.705566,609.136475 
	C1066.415771,609.352417 1075.118774,609.866455 1084.103027,610.591736 
M1063.708862,615.003906 
	C1063.140381,615.600403 1062.088501,616.188171 1062.077515,616.794739 
	C1061.958984,623.396057 1062.003418,630.000305 1062.003418,636.996277 
	C1067.318848,636.996277 1072.276123,637.249939 1077.195679,636.927979 
	C1082.578003,636.575745 1087.434692,631.550842 1087.916992,626.453003 
	C1088.320190,622.191895 1084.676025,617.086914 1079.307495,615.991394 
	C1074.559692,615.022522 1069.561035,615.282715 1063.708862,615.003906 
z"/>
<path fill="#FFFFFF" opacity="1.000000" stroke="none" 
	d="
M990.178894,649.674194 
	C982.597900,639.114319 983.125366,628.258606 989.273499,618.088135 
	C992.024841,613.536865 997.173401,610.203369 1003.143372,609.340942 
	C1013.078369,607.905823 1022.596985,608.487000 1029.818359,616.447937 
	C1036.769897,624.111328 1037.811157,633.354858 1034.554688,642.870300 
	C1030.955688,653.386658 1020.565613,658.056152 1012.439819,658.106445 
	C1003.924194,658.159058 996.102905,657.172852 990.178894,649.674194 
M1002.216187,616.254883 
	C993.638733,621.372620 989.803650,628.918091 992.059875,637.608643 
	C995.230957,649.822937 1004.796570,653.928345 1015.623962,651.649902 
	C1025.777710,649.513306 1031.576294,638.013306 1028.430542,627.922180 
	C1025.080811,617.176697 1015.062195,612.485840 1002.216187,616.254883 
z"/>
<path fill="#FFFFFF" opacity="1.000000" stroke="none" 
	d="
M811.775024,650.281799 
	C813.444702,652.818970 814.856934,655.086121 816.340210,657.467407 
	C811.244629,659.042725 807.882141,657.735352 805.796936,653.333801 
	C805.319580,652.326172 804.667114,651.377930 803.970154,650.501770 
	C797.569946,642.454895 797.562012,642.461243 783.212585,643.199890 
	C783.212585,647.900452 783.212585,652.640076 783.212585,657.754211 
	C781.104065,657.865845 779.361816,657.958130 777.302246,658.067200 
	C777.302246,641.834900 777.302246,625.765686 777.302246,608.619080 
	C785.742371,609.059814 794.445312,608.927856 802.953674,610.149841 
	C809.400452,611.075745 814.242554,615.268066 814.940308,622.332458 
	C815.998047,633.042358 813.645996,637.302734 805.284119,641.353638 
	C807.354797,644.229736 809.436157,647.120728 811.775024,650.281799 
M787.601196,615.000000 
	C786.162842,615.000000 784.724426,615.000000 783.239441,615.000000 
	C783.239441,622.565063 783.239441,629.627625 783.239441,636.999207 
	C788.263123,636.999207 793.065491,637.210266 797.841614,636.946594 
	C804.032593,636.604919 808.545227,632.329407 808.999268,626.853333 
	C809.436951,621.574341 806.510132,617.440186 800.255310,615.909485 
	C796.511108,614.993164 792.476501,615.263184 787.601196,615.000000 
z"/>
<path fill="#FFFFFF" opacity="1.000000" stroke="none" 
	d="
M845.165527,629.999878 
	C852.620422,630.000000 859.588684,630.000000 866.775635,630.000000 
	C866.775635,632.063049 866.775635,633.801147 866.775635,635.932861 
	C858.637695,635.932861 850.549011,635.932861 842.234741,635.932861 
	C842.234741,641.391357 842.234741,646.463074 842.234741,652.000000 
	C850.100830,652.000000 857.888306,652.213318 865.656494,651.917725 
	C870.110107,651.748169 871.918579,653.125122 870.690369,657.798767 
	C858.981995,657.798767 847.221680,657.798767 835.230408,657.798767 
	C835.230408,641.598145 835.230408,625.527771 835.230408,609.228271 
	C846.745178,609.228271 858.154907,609.228271 869.782593,609.228271 
	C869.782593,611.074768 869.782593,612.812744 869.782593,614.944580 
	C860.623230,614.944580 851.535950,614.944580 842.001526,614.944580 
	C842.001526,619.436035 841.856018,623.561462 842.122864,627.660095 
	C842.176941,628.491943 843.786377,629.222473 845.165527,629.999878 
z"/>
<path fill="#FFFFFF" opacity="1.000000" stroke="none" 
	d="
M1140.924561,615.000000 
	C1134.128174,615.000000 1127.823853,615.000000 1121.261719,615.000000 
	C1121.261719,620.001038 1121.261719,624.740051 1121.261719,629.885132 
	C1129.008667,629.885132 1136.758179,629.885132 1144.749268,629.885132 
	C1144.749268,632.018677 1144.749268,633.757263 1144.749268,635.887695 
	C1137.022461,635.887695 1129.266846,635.887695 1121.258911,635.887695 
	C1121.258911,641.340576 1121.258911,646.412842 1121.258911,651.890503 
	C1130.350952,651.890503 1139.430786,651.890503 1148.752441,651.890503 
	C1148.752441,654.023804 1148.752441,655.762329 1148.752441,658.000000 
	C1142.985474,658.000000 1137.202148,658.000000 1131.418945,658.000000 
	C1125.782471,658.000000 1120.145874,658.000000 1114.256836,658.000000 
	C1114.256836,641.652405 1114.256836,625.582092 1114.256836,609.255249 
	C1125.354370,609.255249 1136.429077,609.255249 1147.752441,609.255249 
	C1147.752441,611.024048 1147.752441,612.762512 1147.752441,615.000000 
	C1145.651001,615.000000 1143.533936,615.000000 1140.924561,615.000000 
z"/>
<path fill="#FFFFFF" opacity="1.000000" stroke="none" 
	d="
M888.770752,647.015991 
	C895.241272,651.507690 902.039978,653.914368 909.396118,651.772583 
	C911.976685,651.021240 914.748047,648.081604 915.749634,645.490723 
	C916.929016,642.440063 914.079773,640.066223 911.195129,639.085693 
	C906.514282,637.494446 901.630676,636.502930 896.939514,634.937866 
	C889.372375,632.413269 885.955994,626.966614 887.005798,619.646973 
	C887.886963,613.502869 893.722290,608.864990 901.247986,609.096375 
	C906.541870,609.259155 911.827881,610.201294 917.073547,611.062500 
	C918.531433,611.301880 919.833191,612.492859 921.069397,613.171936 
	C919.915833,618.368958 917.638550,618.644592 913.638245,616.388672 
	C909.184631,613.877136 903.939941,613.776306 899.297119,615.507385 
	C897.073181,616.336609 894.903870,619.304443 894.189148,621.738098 
	C893.018494,625.723938 896.564514,627.629211 899.591248,628.750427 
	C904.526123,630.578491 909.842102,631.419861 914.698242,633.407898 
	C920.622253,635.833130 923.681091,640.929382 922.989136,645.631226 
	C922.064331,651.915527 916.904541,657.477417 910.469360,657.875793 
	C903.184387,658.326721 895.760376,658.875061 889.021118,654.600159 
	C885.073364,652.095886 884.767761,650.903015 888.770752,647.015991 
z"/>
<path fill="#FFFFFF" opacity="1.000000" stroke="none" 
	d="
M956.999939,654.807495 
	C956.456116,660.782532 952.533325,656.670898 950.030518,658.410706 
	C950.030518,643.566895 950.030518,629.513550 950.030518,615.079163 
	C944.616150,615.079163 939.538147,615.079163 934.237549,615.079163 
	C934.237549,612.970947 934.237549,611.234009 934.237549,609.243958 
	C947.304993,609.243958 960.364441,609.243958 973.803406,609.243958 
	C973.878479,610.939697 973.955444,612.678772 974.049377,614.800415 
	C968.449097,614.800415 963.035217,614.800415 957.000000,614.800415 
	C957.000000,628.214905 957.000000,641.270935 956.999939,654.807495 
z"/>
<path fill="#000000" opacity="1.000000" stroke="none" 
	d="
M634.000000,523.111206 
	C634.000000,521.180359 634.000000,519.738098 634.000000,518.151611 
	C647.107849,518.151611 659.725708,518.151611 672.741577,518.151611 
	C672.741577,530.198669 672.741577,542.273560 672.741577,554.743042 
	C685.200195,554.743042 697.275024,554.743042 709.673523,554.743042 
	C709.673523,567.869934 709.673523,580.608093 709.673523,593.745605 
	C697.797241,593.745605 685.722412,593.745605 673.252869,593.745605 
	C673.252869,605.870605 673.252869,617.612488 673.252869,629.675598 
	C660.125732,629.675598 647.387695,629.675598 634.250122,629.675598 
	C634.250122,618.126526 634.250122,606.384705 634.250122,594.248535 
	C621.791260,594.248535 609.716431,594.248535 597.322266,594.248535 
	C597.322266,580.788025 597.322266,567.716797 597.322266,554.246277 
	C609.211060,554.246277 621.285889,554.246277 634.000000,554.246277 
	C634.000000,543.774780 634.000000,533.687256 634.000000,523.111206 
z"/>
<path fill="#000000" opacity="1.000000" stroke="none" 
	d="
M962.000000,491.000916 
	C962.000000,484.865021 962.000000,479.228790 962.000000,472.574982 
	C971.210999,473.049713 980.235474,473.126160 989.160278,474.108826 
	C995.306396,474.785553 1001.811584,475.681702 1007.279846,478.306091 
	C1018.461792,483.672760 1023.610535,493.587616 1025.084106,505.808136 
	C1026.310791,515.982056 1024.317871,525.178406 1018.789062,533.714966 
	C1013.203369,542.339539 1004.675110,546.807922 995.057800,547.755310 
	C984.303040,548.814697 973.363586,547.998474 962.000000,547.998474 
	C962.000000,529.639099 962.000000,510.569855 962.000000,491.000916 
z"/>
<path fill="#000000" opacity="1.000000" stroke="none" 
	d="
M1203.686890,620.312317 
	C1205.638428,624.828003 1208.478882,628.996887 1208.765137,633.334290 
	C1209.416504,643.201965 1201.688721,650.815125 1191.786743,651.901855 
	C1186.724121,652.457458 1181.550171,651.999207 1176.217285,651.999207 
	C1176.217285,639.577515 1176.217285,627.512390 1176.217285,615.068970 
	C1185.669678,615.212402 1195.292358,613.212219 1203.686890,620.312317 
z"/>
<path fill="#000000" opacity="1.000000" stroke="none" 
	d="
M1064.191040,615.002075 
	C1069.561035,615.282715 1074.559692,615.022522 1079.307495,615.991394 
	C1084.676025,617.086914 1088.320190,622.191895 1087.916992,626.453003 
	C1087.434692,631.550842 1082.578003,636.575745 1077.195679,636.927979 
	C1072.276123,637.249939 1067.318848,636.996277 1062.003418,636.996277 
	C1062.003418,630.000305 1061.958984,623.396057 1062.077515,616.794739 
	C1062.088501,616.188171 1063.140381,615.600403 1064.191040,615.002075 
z"/>
<path fill="#000000" opacity="1.000000" stroke="none" 
	d="
M1002.607788,616.134949 
	C1015.062195,612.485840 1025.080811,617.176697 1028.430542,627.922180 
	C1031.576294,638.013306 1025.777710,649.513306 1015.623962,651.649902 
	C1004.796570,653.928345 995.230957,649.822937 992.059875,637.608643 
	C989.803650,628.918091 993.638733,621.372620 1002.607788,616.134949 
z"/>
<path fill="#000000" opacity="1.000000" stroke="none" 
	d="
M788.086792,615.000000 
	C792.476501,615.263184 796.511108,614.993164 800.255310,615.909485 
	C806.510132,617.440186 809.436951,621.574341 808.999268,626.853333 
	C808.545227,632.329407 804.032593,636.604919 797.841614,636.946594 
	C793.065491,637.210266 788.263123,636.999207 783.239441,636.999207 
	C783.239441,629.627625 783.239441,622.565063 783.239441,615.000000 
	C784.724426,615.000000 786.162842,615.000000 788.086792,615.000000 
z"/>
</svg>