<svg id="svg" version="1.1" xmlns="http://www.w3.org/2000/svg" xmlns:xlink="http://www.w3.org/1999/xlink" width="400" height="225" viewBox="0, 0, 400,225"><g id="svgg"><path id="path0" d="M173.479 91.062 C 154.714 92.911,154.905 119.622,173.696 121.448 C 178.942 121.957,183.617 120.577,186.881 117.556 C 188.714 115.859,188.788 116.133,185.746 113.382 C 182.793 110.711,183.016 110.808,182.072 111.782 C 176.786 117.237,168.265 113.822,168.265 106.250 C 168.265 98.827,176.375 95.396,181.839 100.507 C 183.118 101.704,182.726 101.842,185.743 99.130 C 188.782 96.397,188.709 96.655,186.926 94.973 C 183.670 91.902,178.934 90.525,173.479 91.062 M238.750 91.048 C 227.503 92.150,221.218 103.655,226.411 113.636 C 230.934 122.331,244.639 124.340,252.219 117.420 C 253.876 115.908,253.953 116.142,250.883 113.358 C 247.898 110.650,248.344 110.805,247.010 112.011 C 241.506 116.986,233.337 113.606,233.338 106.354 C 233.339 98.902,241.419 95.436,247.010 100.489 C 248.349 101.700,247.926 101.846,250.895 99.148 C 253.916 96.403,253.829 96.619,252.453 95.284 C 249.054 91.985,244.273 90.507,238.750 91.048 M118.333 114.063 L 118.333 136.875 135.938 136.875 L 153.542 136.875 153.542 120.208 L 153.542 103.542 147.396 103.542 L 141.250 103.542 141.250 97.396 L 141.250 91.250 129.792 91.250 L 118.333 91.250 118.333 114.063 M142.500 96.755 L 142.500 102.292 148.021 102.292 C 151.057 102.292,153.542 102.220,153.542 102.133 C 153.542 102.046,151.057 99.554,148.021 96.596 L 142.500 91.217 142.500 96.755 M191.667 106.269 L 191.667 121.081 200.260 120.984 C 210.670 120.867,211.981 120.651,215.588 118.460 C 223.753 113.500,224.443 100.484,216.839 94.886 C 212.868 91.963,210.266 91.463,199.010 91.460 L 191.667 91.458 191.667 106.269 M208.239 98.835 C 213.172 100.350,215.078 106.795,211.893 111.192 C 210.393 113.263,208.450 113.955,203.698 114.110 L 200.208 114.224 200.208 106.248 L 200.208 98.272 203.698 98.392 C 205.938 98.469,207.564 98.627,208.239 98.835 M140.000 111.563 L 140.000 115.417 143.854 115.417 L 147.708 115.417 147.708 119.479 L 147.708 123.542 143.854 123.542 L 140.000 123.542 140.000 127.292 L 140.000 131.042 135.938 131.042 L 131.875 131.042 131.875 127.292 L 131.875 123.542 128.021 123.542 L 124.167 123.542 124.167 119.375 L 124.167 115.208 128.021 115.208 L 131.875 115.208 131.875 111.458 L 131.875 107.708 135.938 107.708 L 140.000 107.708 140.000 111.563 M187.377 126.686 C 183.664 127.161,183.536 131.172,187.202 132.182 C 190.184 133.004,190.802 133.433,190.535 134.496 C 190.209 135.796,187.946 136.096,185.925 135.107 C 184.962 134.636,184.712 134.583,184.563 134.817 C 183.323 136.775,189.352 137.745,191.288 135.899 C 193.151 134.121,191.886 131.989,188.457 131.128 C 186.670 130.679,185.997 130.166,186.082 129.319 C 186.219 127.959,188.378 127.404,190.249 128.248 C 191.068 128.617,191.097 128.616,191.381 128.228 C 192.118 127.220,189.895 126.364,187.377 126.686 M209.209 126.711 C 205.101 127.320,203.479 132.379,206.420 135.411 C 208.944 138.013,213.711 137.223,215.191 133.958 C 216.999 129.971,213.751 126.037,209.209 126.711 M161.667 131.771 L 161.667 136.875 162.292 136.875 L 162.917 136.875 162.917 135.313 L 162.917 133.750 164.545 133.750 L 166.174 133.750 167.264 135.313 C 168.264 136.744,168.416 136.875,169.074 136.875 C 170.009 136.875,169.994 136.802,168.656 134.938 C 167.683 133.582,167.573 133.338,167.890 133.238 C 169.477 132.734,170.173 129.328,168.958 128.010 C 167.975 126.943,167.031 126.676,164.219 126.671 L 161.667 126.667 161.667 131.771 M173.750 131.771 L 173.750 136.875 177.514 136.875 L 181.278 136.875 181.212 136.302 L 181.146 135.729 178.177 135.671 L 175.208 135.614 175.208 133.953 L 175.208 132.292 177.813 132.292 L 180.417 132.292 180.417 131.667 L 180.417 131.042 177.813 131.042 L 175.208 131.042 175.208 129.479 L 175.208 127.917 178.125 127.917 L 181.042 127.917 181.042 127.292 L 181.042 126.667 177.396 126.667 L 173.750 126.667 173.750 131.771 M194.375 127.292 L 194.375 127.917 196.042 127.917 L 197.708 127.917 197.708 132.396 L 197.708 136.875 198.438 136.875 L 199.167 136.875 199.167 132.396 L 199.167 127.917 200.938 127.917 L 202.708 127.917 202.708 127.292 L 202.708 126.667 198.542 126.667 L 194.375 126.667 194.375 127.292 M219.722 126.806 C 219.646 126.882,219.583 129.179,219.583 131.910 L 219.583 136.875 220.313 136.875 L 221.042 136.875 221.042 135.313 L 221.042 133.750 222.656 133.759 L 224.271 133.768 225.321 135.270 C 226.269 136.624,226.446 136.777,227.144 136.835 C 228.143 136.919,228.127 136.837,226.795 134.996 L 225.674 133.445 226.276 133.079 C 228.436 131.765,228.183 128.319,225.840 127.135 C 224.915 126.668,220.118 126.410,219.722 126.806 M231.875 131.771 L 231.875 136.875 235.521 136.875 L 239.167 136.875 239.167 136.250 L 239.167 135.625 236.250 135.625 L 233.333 135.625 233.333 133.958 L 233.333 132.292 235.833 132.292 L 238.333 132.292 238.333 131.667 L 238.333 131.042 235.833 131.042 L 233.333 131.042 233.333 129.479 L 233.333 127.917 236.146 127.917 L 238.958 127.917 238.958 127.292 L 238.958 126.667 235.417 126.667 L 231.875 126.667 231.875 131.771 M243.333 131.771 L 243.333 136.875 246.034 136.875 C 250.942 136.875,252.963 135.386,252.963 131.771 C 252.963 128.156,250.942 126.667,246.034 126.667 L 243.333 126.667 243.333 131.771 M166.972 128.213 C 169.932 129.449,168.237 132.500,164.590 132.500 L 162.917 132.500 162.917 130.208 L 162.917 127.917 164.590 127.917 C 165.565 127.917,166.559 128.040,166.972 128.213 M211.809 128.138 C 213.184 128.656,214.208 130.207,214.208 131.771 C 214.208 136.261,207.675 137.102,206.471 132.766 C 205.630 129.739,208.790 126.999,211.809 128.138 M225.095 128.239 C 227.898 129.569,226.270 132.500,222.729 132.500 L 221.042 132.500 221.042 130.208 L 221.042 127.917 222.729 127.917 C 223.819 127.917,224.656 128.031,225.095 128.239 M249.115 128.194 C 250.526 128.706,251.667 130.305,251.667 131.771 C 251.667 134.206,249.857 135.581,246.615 135.609 L 244.792 135.625 244.792 131.771 L 244.792 127.917 246.615 127.933 C 247.617 127.941,248.742 128.059,249.115 128.194 " stroke="none" fill="#000000" fill-rule="evenodd"></path></g></svg>