<svg id="svg" version="1.1" xmlns="http://www.w3.org/2000/svg" xmlns:xlink="http://www.w3.org/1999/xlink" width="400" height="225" viewBox="0, 0, 400,225"><g id="svgg"><path id="path0" d="M182.292 112.500 L 182.292 135.208 200.000 135.208 L 217.708 135.208 217.708 118.542 L 217.708 101.875 211.563 101.875 L 205.417 101.875 205.417 95.833 L 205.417 89.792 193.854 89.792 L 182.292 89.792 182.292 112.500 M206.667 95.194 L 206.667 100.625 212.238 100.625 L 217.809 100.625 212.811 95.611 C 210.062 92.854,207.555 90.410,207.240 90.180 L 206.667 89.763 206.667 95.194 M204.167 109.896 L 204.167 113.750 207.917 113.750 L 211.667 113.750 211.667 117.813 L 211.667 121.875 207.917 121.875 L 204.167 121.875 204.167 125.729 L 204.167 129.583 200.000 129.583 L 195.833 129.583 195.833 125.729 L 195.833 121.875 192.083 121.875 L 188.333 121.875 188.333 117.708 L 188.333 113.542 192.083 113.542 L 195.833 113.542 195.833 109.792 L 195.833 106.042 200.000 106.042 L 204.167 106.042 204.167 109.896 " stroke="none" fill="#000000" fill-rule="evenodd"></path></g></svg>